<?xml version="1.0" encoding="iso-8859-1"?>
<!-- Generator: Adobe Illustrator 16.0.0, SVG Export Plug-In . SVG Version: 6.00 Build 0)  -->
<!DOCTYPE svg PUBLIC "-//W3C//DTD SVG 1.1//EN" "http://www.w3.org/Graphics/SVG/1.1/DTD/svg11.dtd">
<svg version="1.1" id="Capa_1" xmlns="http://www.w3.org/2000/svg" xmlns:xlink="http://www.w3.org/1999/xlink" x="0px" y="0px"
	 width="79.806px" height="79.806px" viewBox="0 0 79.806 79.806" style="enable-background:new 0 0 79.806 79.806;"
	 xml:space="preserve">
<g>
	<path style="fill:#010002;" d="M68.114,59.444c4.179,0,8.508,3.289,9.646,7.297l1.642,5.794c1.134,4.008-1.361,7.291-5.525,7.271
		L5.992,79.769c-4.179,0-6.685-3.298-5.616-7.321l1.553-5.681c1.087-4.033,5.398-7.322,9.551-7.322H68.114z M77.916,51.698V3.182
		c0-1.76-1.424-3.182-3.185-3.182H5.07C3.32,0,1.889,1.421,1.889,3.182v48.517c0,1.745,1.432,3.18,3.182,3.18h69.666
		C76.492,54.878,77.916,53.443,77.916,51.698z M8.245,6.358h63.313v42.16H8.245V6.358z"/>
</g>
<g>
</g>
<g>
</g>
<g>
</g>
<g>
</g>
<g>
</g>
<g>
</g>
<g>
</g>
<g>
</g>
<g>
</g>
<g>
</g>
<g>
</g>
<g>
</g>
<g>
</g>
<g>
</g>
<g>
</g>
</svg>
